<?xml version="1.0" standalone="no"?>
<!DOCTYPE svg PUBLIC "-//W3C//DTD SVG 20010904//EN"
 "http://www.w3.org/TR/2001/REC-SVG-20010904/DTD/svg10.dtd">
<svg version="1.0" xmlns="http://www.w3.org/2000/svg"
 width="744.000000pt" height="744.000000pt" viewBox="0 0 744.000000 744.000000"
 preserveAspectRatio="xMidYMid meet">
<metadata>
Created by potrace 1.14, written by Peter Selinger 2001-2017
</metadata>
<g transform="translate(0.000000,744.000000) scale(0.100000,-0.100000)"
fill="#000000" stroke="none">
<path d="M1554 7428 c-4 -7 -3 -8 4 -4 8 5 10 2 6 -8 -3 -9 -10 -13 -15 -10
-5 3 -9 -2 -9 -11 0 -15 -1 -15 -16 0 -12 12 -19 13 -30 4 -11 -9 -18 -8 -29
1 -9 7 -15 8 -15 2 0 -5 -7 -12 -14 -15 -9 -4 -13 -1 -10 6 2 7 -4 13 -16 14
-11 1 -20 -3 -20 -9 0 -6 -6 -6 -15 2 -13 11 -14 10 -10 -1 3 -8 -2 -23 -11
-34 -8 -11 -13 -14 -9 -7 7 14 -11 17 -20 2 -3 -5 -11 -10 -16 -10 -6 0 -8 4
-5 9 3 4 -5 7 -17 6 -12 -1 -28 -3 -35 -4 -7 0 -11 -5 -8 -9 3 -5 -4 -16 -15
-25 -10 -10 -19 -12 -19 -6 0 8 -5 7 -15 -1 -11 -9 -15 -10 -15 -1 0 17 -23
-7 -34 -34 -5 -13 -10 -15 -13 -7 -3 6 -9 12 -14 12 -6 0 -7 -6 -3 -12 5 -8 0
-7 -11 2 -15 12 -17 12 -10 1 6 -10 4 -13 -7 -9 -10 4 -14 0 -14 -15 1 -14 -6
-21 -21 -22 -13 -1 -23 3 -23 9 0 6 -5 4 -10 -4 -5 -8 -10 -10 -10 -5 0 6 -9
11 -19 11 -13 0 -18 -6 -16 -18 3 -12 -1 -15 -12 -11 -11 4 -14 2 -9 -5 4 -7
2 -12 -6 -12 -7 0 -19 -9 -26 -20 -7 -11 -19 -20 -28 -20 -8 0 -12 -4 -9 -10
3 -5 1 -10 -5 -10 -6 0 -8 -4 -5 -10 4 -6 -1 -7 -11 -3 -13 5 -15 3 -9 -8 8
-12 6 -12 -8 0 -11 9 -17 10 -17 2 0 -6 -5 -11 -11 -11 -5 0 -7 6 -3 13 5 8 3
8 -9 -2 -9 -7 -14 -17 -12 -22 3 -4 -1 -11 -8 -16 -7 -4 -17 -16 -20 -26 -4
-10 -11 -15 -17 -12 -6 3 -13 -1 -16 -9 -3 -9 -13 -16 -21 -16 -8 0 -12 -4 -8
-9 3 -5 0 -13 -6 -17 -8 -4 -9 -3 -5 4 4 7 1 12 -8 12 -9 0 -16 -4 -16 -10 0
-5 -5 -10 -11 -10 -5 0 -7 5 -3 12 4 7 3 8 -5 4 -6 -4 -9 -11 -6 -16 3 -5 -6
-15 -19 -22 -14 -7 -25 -16 -25 -20 -1 -5 -1 -12 -1 -18 0 -5 -6 -9 -12 -7 -7
1 -12 -3 -11 -10 2 -7 -4 -10 -12 -7 -11 5 -12 0 -5 -25 7 -25 6 -31 -6 -31
-9 0 -12 -5 -8 -12 5 -7 2 -9 -7 -6 -8 3 -20 -1 -27 -8 -7 -8 -10 -14 -6 -14
4 0 -7 -13 -24 -28 -18 -16 -32 -34 -32 -41 0 -8 -7 -11 -16 -7 -8 3 -12 2 -9
-4 3 -6 1 -10 -4 -10 -6 0 -11 -7 -11 -16 0 -8 -4 -13 -9 -10 -5 3 -12 -1 -15
-10 -3 -8 -10 -13 -15 -10 -14 9 -21 -20 -8 -33 8 -8 7 -11 -3 -11 -13 0 -13
-2 0 -10 10 -6 11 -10 3 -10 -7 0 -15 1 -18 3 -2 1 -11 -7 -19 -18 -10 -14
-11 -24 -4 -32 7 -9 7 -13 -2 -13 -9 0 -9 -4 1 -17 8 -10 9 -14 2 -10 -6 4
-15 2 -18 -4 -4 -5 -13 -8 -20 -5 -10 3 -12 -3 -9 -21 3 -15 7 -30 10 -35 3
-4 -2 -8 -11 -8 -10 0 -13 -5 -9 -12 5 -8 1 -8 -12 2 -10 8 -16 10 -12 6 4 -5
2 -16 -5 -24 -10 -13 -9 -14 3 -7 13 8 13 7 1 -8 -8 -11 -9 -17 -3 -17 6 0 9
-7 6 -15 -4 -8 -10 -12 -15 -9 -5 3 -12 -2 -15 -10 -3 -9 -9 -14 -13 -12 -4 3
-7 -6 -7 -19 0 -13 3 -22 7 -19 6 3 5 -19 -1 -36 -1 -3 -2 -9 -1 -13 1 -5 -3
-5 -9 -2 -7 4 -14 -2 -17 -14 -3 -11 -8 -19 -12 -17 -4 3 -7 -6 -7 -19 0 -13
3 -22 6 -20 4 2 7 -9 7 -25 0 -16 -4 -27 -8 -25 -4 3 -10 -2 -13 -11 -3 -8
-10 -13 -15 -10 -5 3 -12 -1 -15 -10 -4 -10 -2 -13 6 -8 7 5 8 3 3 -7 -13 -20
-13 -49 -1 -49 6 0 4 -5 -4 -10 -8 -5 -10 -10 -4 -10 6 0 10 -10 8 -22 -1 -13
-3 -27 -3 -31 -1 -5 -5 -5 -11 -2 -5 3 -10 1 -10 -5 0 -6 -4 -8 -10 -5 -11 7
-15 -4321 -4 -4350 5 -13 9 -14 15 -3 7 10 9 11 9 0 0 -8 5 -10 12 -6 9 5 9 2
-1 -9 -9 -12 -10 -17 -2 -17 9 0 9 -5 0 -21 -9 -17 -8 -20 3 -13 11 6 11 5 -1
-9 -11 -14 -11 -17 0 -17 12 0 12 -2 0 -9 -11 -7 -11 -9 0 -14 12 -4 11 -7 -1
-16 -13 -10 -13 -11 0 -11 13 0 13 -2 0 -10 -12 -7 -12 -12 0 -35 10 -18 16
-22 22 -13 6 10 8 10 8 0 0 -8 5 -10 12 -6 8 5 7 0 -2 -11 -8 -10 -10 -16 -4
-12 7 4 11 -2 12 -18 0 -14 -4 -22 -9 -19 -21 13 -7 -26 20 -55 17 -18 24 -32
17 -35 -6 -3 -5 -5 3 -5 11 -1 11 -4 1 -16 -10 -12 -10 -15 1 -15 11 0 11 -2
-1 -10 -10 -6 -11 -10 -2 -10 6 0 12 -5 12 -11 0 -5 -5 -7 -10 -4 -22 14 -4
-21 20 -37 14 -10 20 -18 14 -18 -5 0 -16 6 -24 13 -12 10 -12 9 -1 -5 7 -10
19 -18 26 -18 6 0 12 -7 12 -15 0 -8 -3 -15 -7 -15 -4 0 -7 -7 -7 -15 0 -8 3
-13 6 -11 13 5 48 -42 40 -55 -4 -8 -1 -18 9 -27 9 -7 11 -10 3 -6 -10 5 -12
3 -7 -5 5 -7 15 -10 23 -7 8 3 11 2 8 -3 -3 -5 0 -13 6 -17 8 -4 7 -9 -2 -15
-11 -7 -11 -9 1 -9 13 0 13 -1 0 -10 -12 -8 -11 -10 8 -10 12 0 22 -5 22 -12
0 -6 14 -24 32 -40 17 -15 26 -28 19 -28 -11 0 -11 -3 0 -17 8 -9 9 -14 3 -10
-6 3 -11 0 -11 -8 0 -7 8 -12 19 -10 11 2 18 -2 18 -11 0 -8 7 -17 15 -20 8
-4 12 -11 8 -18 -4 -6 1 -5 10 3 15 12 17 12 11 -4 -5 -11 -4 -16 3 -12 5 3
10 0 10 -8 0 -8 -4 -15 -8 -15 -4 0 -6 -8 -4 -17 1 -11 9 -17 20 -15 10 2 14
-1 10 -7 -3 -6 1 -11 10 -11 9 0 14 -4 11 -8 -3 -5 6 -16 20 -26 13 -11 24
-26 24 -35 0 -14 2 -14 10 -1 9 13 10 13 11 0 1 -8 1 -18 0 -23 0 -4 2 -6 7
-5 4 2 48 -39 99 -89 55 -56 95 -89 99 -82 4 8 9 7 15 -2 7 -11 9 -11 9 -1 0
10 3 10 15 -2 18 -18 20 -30 3 -20 -9 5 -9 2 1 -9 9 -11 10 -17 2 -17 -6 0 -3
-8 6 -18 13 -14 24 -16 41 -11 17 7 22 5 22 -7 0 -8 4 -12 10 -9 7 4 7 -3 0
-19 -6 -18 -6 -26 1 -26 6 0 7 -4 4 -10 -4 -6 1 -7 11 -3 12 4 15 3 10 -5 -4
-7 -1 -12 9 -12 9 0 14 4 11 8 -3 5 1 9 9 9 8 0 15 -5 15 -11 0 -7 3 -7 8 -1
4 6 14 12 22 13 8 2 12 1 8 -3 -4 -4 8 -22 27 -40 26 -24 32 -34 23 -43 -9 -9
-9 -12 1 -12 11 0 11 -3 0 -17 -8 -10 -9 -14 -2 -10 6 4 15 3 18 -3 5 -8 11
-7 21 1 11 9 14 8 14 -2 0 -9 3 -10 8 -4 11 15 32 17 32 3 0 -9 4 -8 10 2 7
11 10 11 10 2 0 -7 4 -11 8 -8 5 3 9 -1 9 -9 0 -8 -5 -11 -11 -8 -6 4 -5 0 2
-9 10 -13 10 -17 0 -21 -11 -4 -10 -6 0 -6 7 -1 10 -6 7 -11 -4 -7 825 -10
2498 -10 2213 0 2504 2 2504 15 0 8 -4 15 -9 15 -4 0 -8 5 -8 11 0 5 4 8 9 4
6 -3 8 4 6 16 -3 13 -10 26 -17 31 -9 5 -8 8 5 8 10 0 16 4 12 9 -3 5 -1 12 5
16 5 3 10 2 10 -2 0 -13 49 -8 63 7 9 10 9 11 0 6 -17 -10 -16 2 1 20 11 11
16 11 19 1 4 -9 6 -8 6 2 1 11 4 11 18 0 15 -12 16 -12 8 1 -8 13 -7 13 10 0
13 -11 19 -12 22 -3 2 7 11 9 19 6 8 -3 14 -2 13 3 -4 22 2 33 16 28 8 -4 15
-1 15 5 0 7 9 21 20 33 11 12 20 17 20 12 0 -5 9 -10 19 -10 11 0 18 3 15 7
-2 4 3 10 12 13 8 3 12 10 9 16 -4 6 1 7 11 3 11 -4 15 -2 11 4 -4 6 0 14 9
17 8 3 13 10 10 15 -3 5 1 11 9 15 8 3 15 0 15 -7 0 -8 3 -8 9 2 7 11 9 11 14
0 4 -11 6 -11 6 -1 1 7 6 10 11 7 6 -3 10 1 10 9 0 9 5 16 11 16 5 0 7 4 4 10
-3 6 1 7 10 4 9 -4 15 -2 13 3 -4 11 53 69 64 65 4 -1 8 3 8 8 0 15 47 60 54
53 3 -4 6 1 6 11 0 9 7 19 15 22 8 4 15 12 15 20 0 8 6 11 15 8 8 -4 15 -1 15
5 0 17 33 51 43 44 6 -4 8 1 4 11 -4 10 -3 15 3 11 6 -3 10 -1 10 4 0 6 7 11
16 11 8 0 13 4 10 9 -4 5 0 12 6 14 10 4 9 6 -1 6 -11 1 -11 4 0 18 8 9 9 14
4 11 -6 -4 -11 2 -11 12 0 14 3 16 13 8 8 -6 13 -6 13 -1 0 5 11 16 25 23 13
7 22 17 19 22 -3 4 0 8 5 8 6 0 11 7 11 16 0 8 5 12 10 9 6 -3 13 1 16 9 3 9
9 14 13 12 4 -3 7 4 7 14 0 10 -3 17 -6 15 -3 -2 -6 5 -6 15 0 10 4 16 9 13 4
-3 26 13 48 36 22 23 37 41 32 41 -4 0 -8 11 -8 24 0 18 5 23 18 20 10 -1 15
1 12 7 -4 5 2 9 12 9 14 0 15 2 4 9 -11 7 -11 9 0 14 12 4 11 7 -1 16 -13 10
-13 11 0 11 9 0 11 3 5 8 -14 10 -17 32 -5 32 5 0 10 7 10 16 0 14 3 14 15 4
12 -10 15 -10 15 0 0 9 4 9 13 2 7 -6 18 -7 26 -3 10 7 10 10 1 16 -9 6 -9 10
1 16 11 7 11 9 -1 9 -13 0 -13 1 0 10 12 8 12 10 1 10 -9 0 -10 4 -5 12 8 12
10 33 4 48 -7 19 -7 39 1 34 5 -3 9 0 9 5 0 6 -6 11 -12 11 -9 0 -8 4 2 10 12
8 12 10 1 10 -11 0 -11 3 0 17 12 15 12 16 -1 8 -9 -5 -7 0 4 14 11 12 25 20
31 17 6 -2 11 4 11 14 0 10 -4 16 -8 14 -4 -3 -8 0 -8 5 0 6 6 11 13 11 8 0 7
4 -3 10 -10 6 -11 10 -2 10 6 0 12 5 12 11 0 5 -4 8 -9 5 -11 -7 -9 13 2 32 5
7 3 12 -5 12 -9 0 -9 3 2 10 12 8 12 10 1 10 -10 0 -11 3 -2 13 6 8 7 17 3 21
-11 12 -8 30 8 47 10 10 17 12 22 5 9 -13 11 4295 2 4318 -5 14 -9 14 -22 4
-12 -10 -14 -10 -8 0 4 7 2 12 -6 12 -10 0 -10 2 1 9 11 7 11 9 0 14 -12 4
-11 7 1 16 13 10 13 11 0 11 -13 0 -13 1 0 10 13 9 13 11 1 19 -12 8 -12 12
-2 25 11 13 11 16 0 16 -11 0 -11 2 1 10 13 8 13 10 0 10 -11 0 -11 3 -2 12 9
9 7 15 -6 25 -12 10 -12 12 -2 8 8 -4 6 1 -4 9 -11 9 -23 16 -28 16 -4 0 -4 7
-1 17 5 12 3 14 -8 9 -8 -4 -6 -1 3 7 13 10 15 16 6 25 -9 9 -9 12 0 12 7 0
12 5 12 11 0 5 -5 7 -11 3 -8 -5 -10 1 -7 19 3 15 1 24 -4 21 -17 -11 -36 28
-27 58 5 17 4 30 -3 34 -7 5 -8 2 -4 -7 4 -8 -2 -3 -14 11 -12 14 -18 18 -14
10 4 -8 3 -12 -1 -7 -12 10 -17 50 -7 43 5 -3 9 1 9 9 0 8 -6 15 -14 15 -7 0
-13 5 -13 10 0 6 -6 10 -14 10 -11 0 -13 7 -6 30 6 19 5 32 -2 36 -7 5 -8 2
-3 -7 4 -8 -3 -3 -17 11 -18 18 -22 30 -16 43 5 10 5 17 -2 17 -5 0 -10 7 -10
15 0 8 -5 15 -11 15 -5 0 -7 -5 -3 -12 4 -7 3 -8 -5 -4 -6 4 -9 12 -6 17 4 5
1 9 -6 9 -8 0 -8 4 1 15 10 12 10 15 -1 15 -11 0 -11 2 1 10 13 8 12 10 -2 10
-10 0 -18 5 -18 10 0 6 -7 10 -15 10 -8 0 -15 5 -15 11 0 5 5 7 12 3 7 -5 8
-3 4 5 -5 7 -10 10 -13 7 -11 -10 -40 29 -32 45 5 11 -2 23 -26 44 -19 15 -32
33 -28 39 3 6 3 8 -2 4 -4 -4 -36 22 -70 58 -35 35 -69 64 -77 64 -10 0 -9 3
2 10 13 8 12 10 -2 10 -10 0 -18 5 -18 10 0 6 -7 10 -17 10 -9 0 -14 3 -10 6
7 8 -17 34 -32 34 -6 0 -11 5 -11 11 0 5 5 7 12 3 7 -4 8 -3 4 5 -4 6 -12 9
-17 6 -5 -4 -9 -1 -9 5 0 6 -4 8 -10 5 -15 -10 -49 13 -107 72 -29 30 -53 49
-53 43 0 -10 -3 -10 -14 -1 -8 7 -16 8 -18 2 -1 -5 -12 3 -23 17 -19 27 -19
27 0 12 18 -14 19 -14 6 2 -10 14 -18 15 -32 7 -14 -7 -19 -6 -19 3 0 9 -3 9
-10 -2 -7 -11 -10 -11 -10 -2 0 8 -5 10 -12 6 -10 -6 -10 -4 0 8 10 13 10 18
1 24 -8 5 -10 3 -5 -7 4 -8 1 -6 -7 3 -11 14 -16 15 -27 5 -10 -10 -11 -9 -5
3 8 13 7 13 -8 1 -15 -12 -17 -11 -17 3 0 9 -7 19 -15 22 -8 4 -13 9 -11 13 3
4 -4 8 -15 8 -11 1 -17 -3 -13 -9 4 -6 -3 -5 -16 2 -15 8 -20 8 -16 1 4 -6 0
-11 -9 -11 -10 0 -13 5 -9 12 5 8 2 9 -10 5 -9 -4 -15 -3 -13 1 7 12 -30 40
-43 32 -14 -8 -50 22 -50 43 0 8 -4 7 -10 -3 -7 -11 -10 -11 -10 -2 0 8 -5 10
-12 5 -19 -11 -39 -13 -32 -2 3 5 0 9 -5 9 -6 0 -11 -5 -11 -11 0 -6 -5 -7
-12 -2 -19 11 -37 12 -44 2 -3 -6 -12 -5 -22 3 -9 8 -13 8 -9 1 5 -7 0 -9 -14
-6 -16 4 -17 8 -7 14 10 7 11 9 0 9 -7 0 -10 5 -7 10 4 7 -723 10 -2174 10
-1637 0 -2182 -3 -2187 -12z"/>
</g>
</svg>
